# xmcd
#
# Track frame offsets:
#	150
#	15425
#	30702
#	44885
#	61576
#	76818
#	92239
#	107202
#	121828
#	135774
#	149977
#	163857
#	179185
#
# Disc length: 2591 seconds
# Revision: 1
# Processed by: cddbd v1.5.2PL0 Copyright (c) Steve Scherf et al.
# Submitted via: dBpowerAMP V12.0
#
DISCID=b40a1d0d
DTITLE=Catherine McGrath - Talk Of This Town
DYEAR=2018
DGENRE=Country
TTITLE0=Talk of This Town
TTITLE1=The Edges
TTITLE2=Lost In The Middle
TTITLE3=Wild
TTITLE4=Thought It Was Gonna Be Me
TTITLE5=Don't Let Me Forget Feat. Hunter Hayes
TTITLE6=Enough For You
TTITLE7=Dodged A Bullet
TTITLE8=Good At Love
TTITLE9=Cinderella
TTITLE10=Just In Case
TTITLE11=Good Goodbyes
TTITLE12=She'll Never Love You
EXTD=
EXTT0=
EXTT1=
EXTT2=
EXTT3=
EXTT4=
EXTT5=
EXTT6=
EXTT7=
EXTT8=
EXTT9=
EXTT10=
EXTT11=
EXTT12=
PLAYORDER=
